<svg width="12" height="12" fill="none" xmlns="http://www.w3.org/2000/svg"><path d="M5.97 1.867l1.307 2.851.118.257.28.032 3.144.356-2.37 2.073-.22.193.06.287.657 3.104-2.74-1.55-.246-.138-.246.139-2.74 1.549.656-3.104.06-.283-.215-.193-2.312-2.075 3.162-.358.286-.033.116-.264L5.97 1.867z" stroke="#000"/><mask id="mask0" maskUnits="userSpaceOnUse" x="0" y="1" width="6" height="11"><path fill="#C4C4C4" d="M0 1h6v11H0z"/></mask><g mask="url(#mask0)"><path fill-rule="evenodd" clip-rule="evenodd" d="M5.96.644L7.732 4.51 12 4.993l-3.221 2.82L9.664 12 5.96 9.906 2.255 12l.886-4.188L0 4.993l4.268-.483L5.96.644z" fill="#000"/></g></svg>