<svg width="32" height="32" viewBox="0 0 32 32" fill="none" xmlns="http://www.w3.org/2000/svg">
<path d="M3.9 22.5H1.5V6.5H21.3V22.5H9.2" stroke="#010202" stroke-miterlimit="10"/>
<path d="M23.6 22.5H21.3V10.5H27.7L31.3 14.1V22.5H28.9" stroke="#010202" stroke-miterlimit="10"/>
<path d="M6.50002 25.1C8.00002 25.1 9.20002 23.9 9.20002 22.5C9.20002 21 8.00002 19.8 6.50002 19.8C5.10002 19.8 3.90002 21 3.90002 22.5C3.90002 23.9 5.10002 25.1 6.50002 25.1Z" stroke="#010202" stroke-miterlimit="10"/>
<path d="M26.3 25.1C27.7 25.1 28.9 23.9 28.9 22.5C28.9 21 27.7 19.8 26.3 19.8C24.8 19.8 23.6 21 23.6 22.5C23.6 23.9 24.8 25.1 26.3 25.1Z" stroke="#010202" stroke-miterlimit="10"/>
</svg>
