<svg width="22" height="22" fill="none" xmlns="http://www.w3.org/2000/svg"><path clip-rule="evenodd" d="M5.997 0h10.025c3.305 0 5.997 2.701 5.997 5.998V16.02c0 3.297-2.692 5.999-5.997 5.999H5.997C2.692 22 0 19.318 0 16.02V5.998C0 2.701 2.692 0 5.997 0zm0 2.254h10.025c2.06 0 3.75 1.695 3.75 3.744V16.02a3.754 3.754 0 01-3.75 3.745H5.997c-2.061 0-3.75-1.696-3.75-3.745V5.998a3.754 3.754 0 013.75-3.744zm5.012 14.474a5.714 5.714 0 01-5.718-5.719A5.714 5.714 0 0111.01 5.29a5.714 5.714 0 015.718 5.72c-.018 3.148-2.562 5.718-5.718 5.718zm0-9.184a3.452 3.452 0 013.453 3.465 3.453 3.453 0 01-3.453 3.465 3.468 3.468 0 01-3.471-3.465 3.457 3.457 0 013.471-3.465zm6.071-1.378a1.246 1.246 0 01-1.244-1.248c0-.69.557-1.248 1.244-1.248.687 0 1.244.559 1.244 1.248.019.69-.538 1.248-1.244 1.248z"/></svg>