<svg width="210" height="75" viewBox="0 0 210 75" fill="none" xmlns="http://www.w3.org/2000/svg">
<path fill-rule="evenodd" clip-rule="evenodd" d="M91.9276 12.7229C91.9276 12.7229 91.9276 12.7229 96.3446 12.7229C97.9541 12.7229 98.7648 13.5181 98.7648 15.3133C98.7648 15.3133 98.7648 15.3133 98.7648 21.6747C98.7648 21.6747 98.7648 21.6747 107.417 21.6747C107.417 21.6747 107.417 21.6747 107.417 15.3133C107.417 13.5181 108.216 12.7229 110.031 12.7229C110.031 12.7229 110.031 12.7229 114.255 12.7229C114.255 12.7229 114.255 12.7229 114.255 16.9036C114.255 16.9036 114.255 16.9036 112.451 16.9036L112.246 17.1084C112.246 17.1084 112.246 17.1084 112.246 35.0121C112.246 35.0121 112.246 35.0121 107.417 35.0121C107.417 35.0121 107.417 35.0121 107.417 26.0603C107.417 26.0603 107.417 26.0603 98.7648 26.0603C98.7648 26.0603 98.7648 26.0603 98.7648 35.0121C98.7648 35.0121 98.7649 35.0121 93.9364 35.0121C93.9364 35.0121 93.9364 35.0121 93.9364 17.1084C93.9364 17.1084 93.9364 16.9036 93.7307 16.9036C93.7307 16.9036 93.7307 16.9036 91.9276 16.9036C91.9276 16.9036 91.9276 16.9036 91.9276 12.7229Z" fill="#ED1C24"/>
<path fill-rule="evenodd" clip-rule="evenodd" d="M126.925 12.3253L127.033 12.3374V16.9277L126.925 16.9036C123.306 16.9036 120.487 19.8916 120.487 23.6747C120.487 27.6506 123.306 30.8313 126.925 30.8313L127.033 30.8072V35.3976L126.925 35.4097C120.487 35.4097 115.259 30.241 115.259 23.6747C115.259 17.3012 120.487 12.3253 126.925 12.3253Z" fill="#ED1C24"/>
<path fill-rule="evenodd" clip-rule="evenodd" d="M127.033 12.3373L129.272 12.5542C134.585 13.5904 138.59 18.0964 138.59 23.6747C138.59 29.4096 134.585 34.0964 129.272 35.1687L127.033 35.3976V30.8072L129.49 30.2771C131.862 29.1928 133.568 26.6506 133.568 23.6747C133.568 20.8313 131.862 18.4458 129.49 17.4337L127.033 16.9277V12.3373Z" fill="#ED1C24"/>
<path fill-rule="evenodd" clip-rule="evenodd" d="M139.595 12.7229C139.595 12.7229 139.595 12.7229 146.335 12.7229H149.554V16.9036H149.251C148.852 16.9036 148.041 16.9036 146.432 16.9036C146.432 16.9036 146.432 16.9036 146.432 21.4819C146.432 21.4819 146.432 21.4819 147.799 21.4819H149.554V25.4578H148.525C148.017 25.4578 147.339 25.4578 146.432 25.4578C146.432 25.4578 146.432 25.4578 146.432 30.4337C146.432 30.6386 146.432 30.6386 146.638 30.6386C146.638 30.6386 146.638 30.6386 148.078 30.6386H149.554V35.0121H149.13C148.404 35.0121 146.94 35.0121 144.024 35.0121C142.414 35.0121 141.616 34.2169 141.616 32.4217V16.9036C141.616 16.9036 141.616 16.9036 139.595 16.9036C139.595 16.9036 139.595 16.9036 139.595 12.7229Z" fill="#ED1C24"/>
<path fill-rule="evenodd" clip-rule="evenodd" d="M149.554 12.7229H149.651C154.08 12.7229 156.694 15.1084 156.694 18.6988C156.694 20.8795 155.689 22.2771 154.685 23.2771C156.5 24.0723 157.698 26.0602 157.698 28.241C157.698 32.4217 154.479 35.0121 149.856 35.0121C149.856 35.0121 149.856 35.0121 149.772 35.0121H149.554V30.6386H150.05C151.66 30.6386 152.676 29.6386 152.676 28.0482C152.676 26.4578 151.66 25.4578 150.05 25.4578C150.05 25.4578 150.05 25.4578 149.602 25.4578H149.554V21.4819H149.651C151.067 21.4819 151.865 20.4819 151.865 19.0964C151.865 17.6988 151.067 16.9036 149.651 16.9036C149.651 16.9036 149.651 16.9036 149.602 16.9036H149.554V12.7229Z" fill="#ED1C24"/>
<path fill-rule="evenodd" clip-rule="evenodd" d="M166.956 12.7229C166.956 12.7229 166.956 12.7229 168.989 12.7229H169.364V19.0964C169.17 19.494 168.965 20.0844 168.965 20.6868C168.965 20.6868 168.965 20.6868 167.355 25.2651C167.355 25.2651 167.355 25.2651 169.061 25.2651H169.364V29.4337H168.275C167.658 29.4337 166.956 29.4337 166.157 29.4337C166.157 29.4337 166.157 29.4337 164.741 33.0241C164.342 34.4096 163.543 35.0121 161.934 35.0121C161.934 35.0121 161.934 35.0121 158.908 35.0121C158.908 35.0121 158.908 35.0121 158.908 30.6386C158.908 30.6386 158.908 30.6386 159.913 30.6386C160.324 30.6386 160.324 30.6386 160.518 30.4337C160.518 30.4337 160.518 30.4337 166.956 12.7229Z" fill="#ED1C24"/>
<path fill-rule="evenodd" clip-rule="evenodd" d="M169.364 12.7229H171.784C171.784 12.7229 171.784 12.7229 178.222 30.4337C178.416 30.6386 178.416 30.6386 178.815 30.6386C178.815 30.6386 178.815 30.6386 179.626 30.6386C179.626 30.6386 179.626 30.6386 179.626 35.0121C179.626 35.0121 179.626 35.0121 176.806 35.0121C175.197 35.0121 174.398 34.4096 173.986 32.8193C173.986 32.8193 173.986 32.8193 172.583 29.4337C172.583 29.4337 172.583 29.4337 169.872 29.4337H169.364V25.2651H171.373C171.373 25.2651 171.373 25.2651 169.775 20.6868C169.775 20.0844 169.569 19.494 169.364 19.0964V12.7229Z" fill="#ED1C24"/>
<path fill-rule="evenodd" clip-rule="evenodd" d="M91.9276 41.3735C91.9276 41.3735 91.9276 41.3735 109.426 41.3735C111.036 41.3735 112.04 42.1687 112.04 43.9638C112.04 43.9638 112.04 43.9638 112.04 59.0843C112.04 59.2771 112.04 59.2771 112.246 59.2771C112.246 59.2771 112.246 59.2771 113.855 59.2771C113.855 59.2771 113.855 59.2771 113.855 63.6626C113.855 63.6626 113.855 63.6626 109.632 63.6626C107.817 63.6626 107.018 62.8675 107.018 61.0723C107.018 61.0723 107.018 61.0723 107.018 45.759C107.018 45.759 107.018 45.5542 106.812 45.5542C106.812 45.5542 106.812 45.5542 98.7648 45.5542C98.7648 45.5542 98.7648 45.5542 98.7648 63.6626C98.7648 63.6626 98.7649 63.6626 93.9364 63.6626C93.9364 63.6626 93.9364 63.6626 93.9364 45.5542C93.9364 45.5542 93.9364 45.5542 91.9276 45.5542C91.9276 45.5542 91.9276 45.5542 91.9276 41.3735Z" fill="#ED1C24"/>
<path fill-rule="evenodd" clip-rule="evenodd" d="M126.525 40.9759L126.622 40.9879V45.5783L126.525 45.5542C122.895 45.5542 120.087 48.5422 120.087 52.3253C120.087 56.3012 122.895 59.4819 126.525 59.4819L126.622 59.4578V64.0482L126.525 64.0602C120.087 64.0602 115.053 58.8795 115.053 52.3253C115.053 45.9518 120.087 40.9759 126.525 40.9759Z" fill="#ED1C24"/>
<path fill-rule="evenodd" clip-rule="evenodd" d="M126.622 40.988L128.933 41.2048C134.343 42.241 138.191 46.747 138.191 52.3253C138.191 58.0603 134.343 62.747 128.933 63.8193L126.622 64.0482V59.4579L129.175 58.9277C131.584 57.8434 133.169 55.3012 133.169 52.3253C133.169 49.482 131.584 47.0964 129.175 46.0844L126.622 45.5783V40.988Z" fill="#ED1C24"/>
<path fill-rule="evenodd" clip-rule="evenodd" d="M139.195 41.3735C139.195 41.3735 139.195 41.3735 143.624 41.3735C145.234 41.3735 146.033 42.1687 146.033 43.9638C146.033 43.9638 146.033 43.9638 146.033 59.0843C146.033 59.2771 146.033 59.2771 146.238 59.2771C146.238 59.2771 146.238 59.2771 152.071 59.2771C152.071 59.2771 152.071 59.2771 152.071 41.3735C152.071 41.3735 152.071 41.3735 156.9 41.3735C156.9 41.3735 156.9 41.3735 156.9 59.2771C156.9 59.2771 156.9 59.2771 162.732 59.2771C162.938 59.2771 162.938 59.2771 162.938 59.0843C162.938 59.0843 162.938 59.0843 162.938 43.9638C162.938 42.1687 163.737 41.3735 165.346 41.3735C165.346 41.3735 165.346 41.3735 169.775 41.3735C169.775 41.3735 169.775 41.3735 169.775 45.5542C169.775 45.5542 169.775 45.5542 167.96 45.5542C167.754 45.5542 167.754 45.759 167.754 45.759C167.754 45.759 167.754 45.759 167.754 61.0723C167.754 62.8675 166.956 63.6626 165.346 63.6626C165.346 63.6626 165.346 63.6626 143.818 63.6626C142.015 63.6626 141.204 62.8675 141.204 61.0723C141.204 61.0723 141.204 61.0723 141.204 45.759C141.204 45.759 141.204 45.5542 141.011 45.5542C141.011 45.5542 141.011 45.5542 139.195 45.5542C139.195 45.5542 139.195 45.5542 139.195 41.3735Z" fill="#ED1C24"/>
<path fill-rule="evenodd" clip-rule="evenodd" d="M173.587 41.3735C173.587 41.3735 173.587 41.3735 188.678 41.3735C190.493 41.3735 191.098 42.1687 191.098 43.759C191.098 43.759 191.098 43.759 191.098 47.5421H186.669C186.669 47.5421 186.669 47.5421 186.669 45.759C186.669 45.5542 186.669 45.5542 186.463 45.5542C186.463 45.5542 186.463 45.5542 183.655 45.5542C183.655 45.5542 183.655 45.5542 183.655 63.6626C183.655 63.6626 183.655 63.6626 178.815 63.6626C178.815 63.6626 178.815 63.6626 178.815 45.5542C178.815 45.5542 178.815 45.5542 176.007 45.5542C175.802 45.5542 175.802 45.5542 175.802 45.759C175.802 45.759 175.802 45.759 175.802 47.5421C175.802 47.5421 175.802 47.5421 171.373 47.5421C171.373 47.5421 171.373 47.5421 171.373 43.759C171.373 42.1687 171.978 41.3735 173.587 41.3735Z" fill="#ED1C24"/>
<path fill-rule="evenodd" clip-rule="evenodd" d="M197.33 41.3735C197.33 41.3735 197.33 41.3735 199.363 41.3735H199.738V47.747C199.532 48.1446 199.339 48.7349 199.339 49.3373C199.339 49.3373 199.339 49.3373 197.729 53.9156C197.729 53.9156 197.729 53.9156 199.423 53.9156H199.738V58.0843H198.649C198.032 58.0843 197.33 58.0843 196.519 58.0843C196.519 58.0843 196.519 58.0843 195.115 61.4699C194.716 63.0602 193.905 63.6626 192.296 63.6626C192.296 63.6626 192.296 63.6626 189.283 63.6626C189.283 63.6626 189.283 63.6626 189.283 59.2771C189.283 59.2771 189.283 59.2771 190.287 59.2771C190.698 59.2771 190.698 59.2771 190.892 59.0843C190.892 59.0843 190.892 59.0843 197.33 41.3735Z" fill="#ED1C24"/>
<path fill-rule="evenodd" clip-rule="evenodd" d="M199.738 41.3735H202.146C202.146 41.3735 202.146 41.3735 208.596 59.0843C208.79 59.2771 208.79 59.2771 209.201 59.2771H210C210 59.2771 210 59.2771 210 63.6626C210 63.6626 210 63.6626 207.18 63.6626C205.571 63.6626 204.772 63.0602 204.361 61.4699C204.361 61.4699 204.361 61.4699 202.957 58.0843C202.957 58.0843 202.957 58.0843 200.246 58.0843H199.738V53.9156H201.747C201.747 53.9156 201.747 53.9156 200.137 49.3373C200.137 48.7349 199.944 48.1446 199.738 47.747V41.3735Z" fill="#ED1C24"/>
<path fill-rule="evenodd" clip-rule="evenodd" d="M60.924 22.2048C61.1539 22.1325 61.4564 22.2771 61.759 22.6747C61.759 22.6747 61.759 22.6747 75.4334 36C76.2321 36.7952 76.2321 38 75.4334 38.5903C75.4334 38.5903 75.4334 38.5903 61.759 52.1205C61.4564 52.518 61.1539 52.6144 60.924 52.494C60.694 52.3735 60.5488 52.0241 60.5488 51.518V23.0723C60.5488 22.5783 60.694 22.2771 60.924 22.2048Z" fill="#ED1C24"/>
<path fill-rule="evenodd" clip-rule="evenodd" d="M37.5322 0H38.5003L39.4321 0.385544C39.4321 0.385544 39.4321 0.385543 53.5059 14.3133C54.111 15.1084 53.9052 15.7108 52.9008 15.7108C52.9008 15.7108 52.9008 15.7108 47.068 15.7108C46.0636 15.7108 45.2649 16.506 45.2649 17.506C45.2649 17.506 45.2649 17.506 45.2649 27.8434C45.2649 28.8434 44.4541 29.6386 43.244 29.6386C43.244 29.6386 43.244 29.6386 32.9942 29.6386C31.9898 29.6386 31.179 28.8434 31.179 27.8434C31.179 27.8434 31.179 27.8434 31.179 17.506C31.179 16.506 30.3803 15.7108 29.3638 15.7108H23.1316C22.1272 15.7108 21.9215 15.1084 22.5265 14.3133C22.5265 14.3133 22.5265 14.3133 36.6125 0.385544L37.5322 0Z" fill="#ED1C24"/>
<path fill-rule="evenodd" clip-rule="evenodd" d="M15.4836 21.9036C15.7377 22.0241 15.8951 22.3735 15.8951 22.8795V51.9157C15.8951 52.4217 15.7377 52.7229 15.4836 52.8193C15.2416 52.9157 14.8907 52.8193 14.4792 52.5181C14.4792 52.5181 14.4792 52.5181 0.599015 38.5904C-0.199672 38 -0.199672 36.7952 0.599015 36C0.599015 36 0.599016 36 14.4792 22.2771C14.8907 21.8795 15.2416 21.7831 15.4836 21.9036Z" fill="#ED1C24"/>
<path fill-rule="evenodd" clip-rule="evenodd" d="M32.9942 44.759C32.9942 44.759 32.9942 44.759 43.244 44.759C44.4541 44.759 45.2649 45.5542 45.2649 46.5542C45.2649 46.5542 45.2649 46.5542 45.2649 57.494C45.2649 58.6867 46.0636 59.4819 47.068 59.4819H52.5015C53.5059 59.4819 53.9053 60.0723 53.1066 60.6747C53.1066 60.6747 53.1066 60.6747 39.4321 74.3976C39.0207 74.7952 38.5245 75 38.0162 75C37.5201 75 37.0118 74.7952 36.6125 74.3976C36.6125 74.3976 36.6125 74.3976 22.938 60.6747C22.1272 60.0723 22.5266 59.4819 23.531 59.4819C23.531 59.4819 23.531 59.4819 29.3638 59.4819C30.3803 59.4819 31.179 58.6867 31.179 57.494C31.179 57.494 31.179 57.494 31.179 46.5542C31.179 45.5542 31.9898 44.759 32.9942 44.759Z" fill="#ED1C24"/>
</svg>
