<svg width="18" height="19" fill="none" xmlns="http://www.w3.org/2000/svg"><g clip-path="url(#clip0)"><path fill-rule="evenodd" clip-rule="evenodd" d="M4.906 0h8.203c2.704 0 4.906 2.263 4.906 5.025v8.396c0 2.762-2.202 5.025-4.906 5.025H4.906C2.203 18.431 0 16.183 0 13.421V5.025C0 2.263 2.203 0 4.906 0zm0 1.888h8.203c1.686 0 3.068 1.42 3.068 3.137v8.396c0 1.732-1.382 3.137-3.068 3.137H4.906c-1.686 0-3.068-1.42-3.068-3.137V5.025c0-1.732 1.382-3.137 3.068-3.137zm4.102 12.126c-2.583 0-4.679-2.138-4.679-4.79 0-2.654 2.096-4.792 4.679-4.792 2.582 0 4.678 2.138 4.678 4.791-.015 2.637-2.096 4.791-4.678 4.791zm0-7.694c1.564 0 2.825 1.296 2.825 2.903 0 1.608-1.26 2.903-2.825 2.903-1.565 0-2.84-1.295-2.84-2.903 0-1.607 1.26-2.903 2.84-2.903zm4.967-1.154c-.562 0-1.018-.469-1.018-1.046 0-.577.456-1.046 1.018-1.046s1.017.469 1.017 1.046a1.013 1.013 0 01-1.017 1.046z" fill="#fff"/></g><defs><clipPath id="clip0"><path fill="#fff" d="M0 0h18v18.431H0z"/></clipPath></defs></svg>