<svg width="15" height="16" viewBox="0 0 15 16" fill="none" xmlns="http://www.w3.org/2000/svg">
<g clip-path="url(#clip0)">
<path d="M7.19999 8.39995C9.29999 8.39995 11 6.69995 11 4.49995C11 2.39995 9.29999 0.699951 7.19999 0.699951C5.09999 0.699951 3.29999 2.39995 3.29999 4.49995C3.29999 6.69995 5.09999 8.39995 7.19999 8.39995Z" stroke="black" stroke-width="1.4" stroke-miterlimit="10"/>
<path d="M0.700012 15.7C0.700012 12.7 3.60001 10.2 7.20001 10.2C10.8 10.2 13.7 12.7 13.7 15.7" stroke="black" stroke-width="1.4" stroke-miterlimit="10"/>
<g clip-path="url(#clip1)">
<path d="M7.19999 8.39995C9.29999 8.39995 11 6.69995 11 4.49995C11 2.39995 9.29999 0.699951 7.19999 0.699951C5.09999 0.699951 3.29999 2.39995 3.29999 4.49995C3.29999 6.69995 5.09999 8.39995 7.19999 8.39995Z" fill="black" stroke="black" stroke-width="1.4" stroke-miterlimit="10"/>
<path d="M0.700012 15.7C0.700012 12.7 3.60001 10.2 7.20001 10.2C10.8 10.2 13.7 12.7 13.7 15.7" fill="black"/>
<path d="M0.700012 15.7C0.700012 12.7 3.60001 10.2 7.20001 10.2C10.8 10.2 13.7 12.7 13.7 15.7" stroke="black" stroke-width="1.4" stroke-miterlimit="10"/>
</g>
</g>
<defs>
<clipPath id="clip0">
<rect width="14.4" height="15.7" fill="white"/>
</clipPath>
<clipPath id="clip1">
<rect width="14.4" height="15.7" fill="white"/>
</clipPath>
</defs>
</svg>
