<svg width="18" height="18" viewBox="0 0 18 18" fill="none" xmlns="http://www.w3.org/2000/svg">
<path d="M6.51283 18C3.83389 17.9846 1.61792 12.516 1.61792 9.73091C1.61792 5.18155 5.03071 4.18557 6.34598 4.18557C6.93871 4.18557 7.57163 4.41834 8.12988 4.62432C8.52025 4.76801 8.92399 4.91633 9.14853 4.91633C9.28293 4.91633 9.59965 4.79016 9.87928 4.67945C10.4756 4.44204 11.2177 4.14697 12.0819 4.14697C12.0834 4.14697 12.0855 4.14697 12.087 4.14697C12.7322 4.14697 14.6887 4.28858 15.8649 6.05497L16.1404 6.46901L15.7439 6.76822C15.1774 7.19565 14.1438 7.97535 14.1438 9.5198C14.1438 11.349 15.3144 12.0525 15.8768 12.3908C16.125 12.5402 16.382 12.6942 16.382 13.031C16.382 13.2509 14.6269 17.9727 12.0782 17.9727C11.4546 17.9727 11.0138 17.7853 10.6249 17.62C10.2315 17.4526 9.89212 17.3084 9.3313 17.3084C9.04703 17.3084 8.68756 17.4428 8.30699 17.5855C7.78693 17.7796 7.19827 18 6.53034 18H6.51283Z" fill="white"/>
<path d="M12.3518 0C12.4182 2.3933 10.7066 4.05366 8.99706 3.94952C8.71535 2.03959 10.7064 0 12.3518 0Z" fill="white"/>
</svg>
