<svg width="59" height="40" viewBox="0 0 59 40" fill="none" xmlns="http://www.w3.org/2000/svg">
<path fill-rule="evenodd" clip-rule="evenodd" d="M13.4252 40C31.2969 40 35.2303 8.93324 6.41329 0.24791C2.73634 -1.08829 0.342042 3.33788 3.84797 4.92463C7.78146 6.92893 11.2019 9.35081 12.399 13.8605C5.47267 14.3616 0 19.9569 0 26.8885C0 34.1541 5.98574 40 13.4252 40ZM44.9785 40C62.8502 40 66.7837 8.93324 37.9667 0.24791C34.2897 -1.08829 31.8954 3.33788 35.4014 4.92463C39.3348 6.92893 42.7553 9.35081 43.9524 13.8605C37.0261 14.3616 31.5534 20.0404 31.5534 26.8885C31.5534 34.1541 37.5391 40 44.9785 40Z" fill="#DCE0D7"/>
</svg>
