<svg width="59" height="40" fill="none" xmlns="http://www.w3.org/2000/svg"><path fill-rule="evenodd" clip-rule="evenodd" d="M13.425 40C31.297 40 35.23 8.933 6.413.248 2.736-1.088.342 3.338 3.848 4.925c3.933 2.004 7.354 4.426 8.551 8.936C5.473 14.36 0 19.957 0 26.888 0 34.154 5.986 40 13.425 40zm31.553 0C62.85 40 66.784 8.933 37.967.248c-3.677-1.336-6.072 3.09-2.566 4.677 3.934 2.004 7.354 4.426 8.551 8.936-6.926.5-12.399 6.18-12.399 13.027C31.553 34.154 37.54 40 44.978 40z" fill="#DCE0D7"/></svg>