<svg width="20" height="20" fill="none" xmlns="http://www.w3.org/2000/svg"><path d="M8.264 11.868c1.056 1.012 1.804 1.716 2.464 2.024.528.308 1.056.088 1.364-.22.308-.396.616-.704.968-1.1.616-.704 3.828.528 4.796.704.748.22 1.144.616 1.144 1.1v1.716c-.836 1.803-2.112 2.816-4.048 2.904-2.772.088-5.94-1.1-9.46-4.532-3.388-3.52-4.575-6.644-4.487-9.46 0-1.892 1.055-3.212 2.86-4.004H5.58c.528 0 .968.484 1.056 1.188.308 1.012 1.584 4.136.836 4.796-.308.308-.748.616-1.056.924-.308.308-.528.792-.22 1.408.352.748.968 1.452 2.068 2.552z" stroke="#131413" stroke-width="1.5" stroke-miterlimit="10"/></svg>