<svg width="32" height="32" viewBox="0 0 32 32" fill="none" xmlns="http://www.w3.org/2000/svg">
<path d="M16.9464 18.0564C16.0664 18.8997 15.4431 19.4864 14.8931 19.743C14.4531 19.9997 14.0132 19.8164 13.7565 19.5597C13.4998 19.2297 13.2432 18.973 12.9499 18.6431C12.4365 18.0564 9.75995 19.083 8.95331 19.2297C8.32999 19.413 8 19.743 8 20.1463C8 20.6597 8 21.1363 8 21.5763C8.69665 23.0796 9.75995 23.9229 11.3732 23.9962C13.6832 24.0696 16.3231 23.0796 19.2563 20.2197C22.0796 17.2864 23.0696 14.6832 22.9962 12.3366C22.9962 10.7599 22.1163 9.65998 20.613 9C20.173 9 19.623 9 19.183 9C18.743 9 18.3764 9.40332 18.303 9.98997C18.0464 10.8333 16.9831 13.4365 17.6064 13.9865C17.8631 14.2432 18.2297 14.4998 18.4864 14.7565C18.743 15.0132 18.9264 15.4165 18.6697 15.9298C18.3764 16.5531 17.8631 17.1398 16.9464 18.0564Z" stroke="#131413" stroke-miterlimit="10"/>
</svg>
