<svg width="12" height="15" viewBox="0 0 12 15" fill="none" xmlns="http://www.w3.org/2000/svg">
<path d="M10.8138 8.29644L10.8062 8.31275L10.7994 8.32944C10.4271 9.24057 9.68481 10.3168 8.72927 11.4113C7.90801 12.352 6.95385 13.2783 6 14.0895C5.04615 13.2783 4.09199 12.352 3.27073 11.4113C2.31519 10.3168 1.57285 9.24057 1.20065 8.32944L1.1964 8.31905L1.19182 8.3088C0.873363 7.59548 0.7 6.85677 0.7 6.04775C0.7 3.08693 3.07603 0.7 6 0.7C8.92397 0.7 11.3 3.08693 11.3 6.04775C11.3 6.86369 11.1238 7.63695 10.8138 8.29644Z" stroke="black" stroke-width="1.4"/>
<circle cx="6" cy="6" r="2" fill="black"/>
</svg>
