<svg width="17" height="17" fill="none" xmlns="http://www.w3.org/2000/svg"><path d="M7.054 10.056c.88.844 1.503 1.43 2.053 1.687.44.257.88.073 1.136-.183.257-.33.514-.587.807-.917.513-.587 3.19.44 3.997.587.623.183.953.513.953.916v1.43c-.697 1.504-1.76 2.347-3.373 2.42-2.31.074-4.95-.916-7.883-3.776C1.92 9.286.93 6.683 1.004 4.337c0-1.577.88-2.677 2.383-3.337h1.43c.44 0 .807.403.88.99.257.843 1.32 3.447.697 3.997-.257.256-.624.513-.88.77-.257.256-.44.66-.184 1.173.294.623.807 1.21 1.724 2.126z" stroke="#131413" stroke-width="1.4" stroke-miterlimit="10"/></svg>